<svg width="160" height="160" viewBox="0 0 160 160" fill="none" xmlns="http://www.w3.org/2000/svg">
<path d="M80 16C115.2 16 144 44.8 144 80C144 115.2 115.2 144 80 144C44.8 144 16 115.2 16 80C16 44.8 44.8 16 80 16ZM80 0C36 0 0 36 0 80C0 124 36 160 80 160C124 160 160 124 160 80C160 36 124 0 80 0Z" fill="#3A3A3A"/>
<path d="M59.6146 54.9081L54.9445 59.5782C53.7337 60.789 53.7337 62.8646 54.9445 64.2484L70.8576 80.1615L54.9445 96.0746C53.7337 97.2854 53.7337 99.361 54.9445 100.745L59.4416 105.242C60.6524 106.453 62.728 106.453 64.1118 105.242L80.0249 89.3288L95.938 105.242C97.1488 106.453 99.2244 106.453 100.608 105.242L105.105 100.745C106.316 99.534 106.316 97.4583 105.105 96.0746L89.1922 79.9885L105.105 64.0754C106.316 62.8646 106.316 60.789 105.105 59.4053L100.608 54.9081C99.3974 53.6973 97.3217 53.6973 95.938 54.9081L80.0249 70.8212L64.1118 54.9081C62.901 53.6973 60.8254 53.6973 59.6146 54.9081Z" fill="#3A3A3A"/>
</svg>
