<svg width="26" height="23" viewBox="0 0 26 23" fill="none" xmlns="http://www.w3.org/2000/svg">
<path fill-rule="evenodd" clip-rule="evenodd" d="M26 2.39995C26 1.32301 25.1685 0.449951 24.1429 0.449951H1.85714C0.831444 0.449951 0 1.32301 0 2.39995C0 3.4769 0.831444 4.34995 1.85714 4.34995H24.1429C25.1685 4.34995 26 3.4769 26 2.39995Z" fill="white"/>
<path fill-rule="evenodd" clip-rule="evenodd" d="M26 11.5C26 10.4231 25.1685 9.55005 24.1429 9.55005H1.85714C0.831444 9.55005 0 10.4231 0 11.5C0 12.577 0.831444 13.45 1.85714 13.45H24.1429C25.1685 13.45 26 12.577 26 11.5Z" fill="white"/>
<path fill-rule="evenodd" clip-rule="evenodd" d="M14.9503 20.5999C14.9503 19.5229 14.1136 18.6499 13.0816 18.6499H1.86907C0.836957 18.6499 0.000317574 19.5229 0.000317574 20.5999C0.000317574 21.6769 0.836957 22.5499 1.86907 22.5499H13.0816C14.1136 22.5499 14.9503 21.6769 14.9503 20.5999Z" fill="white"/>
</svg>
