<svg width="64" height="19" viewBox="0 0 64 19" fill="none" xmlns="http://www.w3.org/2000/svg">
<rect y="0.5" width="63.6566" height="18" rx="5" fill="white"/>
<path d="M12.0938 9.07227C12.0938 9.71029 12.0117 10.2868 11.8477 10.8018C11.6836 11.3122 11.4535 11.7679 11.1572 12.1689C10.8656 12.5654 10.5169 12.9072 10.1113 13.1943C9.70573 13.4814 9.26139 13.7184 8.77832 13.9053C8.29525 14.0876 7.78027 14.2243 7.2334 14.3154C6.69108 14.402 6.13281 14.4453 5.55859 14.4453C5.3444 14.4453 5.13477 14.4408 4.92969 14.4316C4.72461 14.418 4.51497 14.3997 4.30078 14.377L4.49219 5.20312C4.99349 5.04362 5.50846 4.93197 6.03711 4.86816C6.57031 4.7998 7.09896 4.76562 7.62305 4.76562C8.27474 4.76562 8.87402 4.86361 9.4209 5.05957C9.96777 5.25553 10.4395 5.53809 10.8359 5.90723C11.2324 6.27637 11.54 6.72754 11.7588 7.26074C11.9821 7.79395 12.0938 8.39779 12.0938 9.07227ZM9.29102 9.50977C9.29557 9.26367 9.26823 9.02669 9.20898 8.79883C9.1543 8.57096 9.06087 8.37044 8.92871 8.19727C8.80111 8.01953 8.63704 7.87826 8.43652 7.77344C8.236 7.66406 7.99674 7.60482 7.71875 7.5957L7.44531 11.834C7.71875 11.793 7.96712 11.7041 8.19043 11.5674C8.41374 11.4261 8.60514 11.2552 8.76465 11.0547C8.92871 10.8496 9.05404 10.624 9.14062 10.3779C9.23177 10.1273 9.2819 9.86979 9.29102 9.60547V9.50977ZM16.2021 4.875L15.4502 14.1855L12.5654 14.3359V5.06641L16.2021 4.875ZM25.9775 4.69727L25.4854 13.9668L21.9033 14.2949L19.9893 9.33203L19.6885 14.3906H16.6123L16.8584 4.69727L20.2764 4.5332L22.6416 9.45508L22.751 4.80664L25.9775 4.69727ZM34.8916 9.67383C34.8916 10.0885 34.8438 10.4896 34.748 10.877C34.6523 11.2598 34.5133 11.6198 34.3311 11.957C34.1533 12.2943 33.9346 12.6042 33.6748 12.8867C33.4196 13.1647 33.1302 13.404 32.8066 13.6045C32.4876 13.805 32.139 13.9622 31.7607 14.0762C31.3825 14.1855 30.9814 14.2402 30.5576 14.2402C30.1475 14.2402 29.7555 14.1878 29.3818 14.083C29.0127 13.9782 28.6663 13.8324 28.3428 13.6455C28.0192 13.4541 27.7253 13.2262 27.4609 12.9619C27.2012 12.693 26.9779 12.3968 26.791 12.0732C26.6087 11.7451 26.4652 11.3942 26.3604 11.0205C26.2601 10.6468 26.21 10.2572 26.21 9.85156C26.21 9.45508 26.2578 9.06771 26.3535 8.68945C26.4492 8.30664 26.5859 7.94661 26.7637 7.60938C26.946 7.27214 27.1647 6.96224 27.4199 6.67969C27.6751 6.39714 27.96 6.15332 28.2744 5.94824C28.5934 5.74316 28.9375 5.58366 29.3066 5.46973C29.6758 5.35579 30.0654 5.29883 30.4756 5.29883C31.1364 5.29883 31.738 5.40137 32.2803 5.60645C32.8271 5.81152 33.292 6.10547 33.6748 6.48828C34.0622 6.86654 34.3607 7.32682 34.5703 7.86914C34.7845 8.4069 34.8916 9.00846 34.8916 9.67383ZM31.8564 9.85156C31.8564 9.6556 31.8268 9.46647 31.7676 9.28418C31.7129 9.09733 31.6309 8.93327 31.5215 8.79199C31.4121 8.64616 31.2754 8.52995 31.1113 8.44336C30.9518 8.35221 30.7673 8.30664 30.5576 8.30664C30.3434 8.30664 30.152 8.34538 29.9834 8.42285C29.8148 8.50033 29.6689 8.60742 29.5459 8.74414C29.4274 8.8763 29.3363 9.03353 29.2725 9.21582C29.2087 9.39355 29.1768 9.58268 29.1768 9.7832C29.1768 9.97461 29.2041 10.166 29.2588 10.3574C29.3135 10.5488 29.3955 10.722 29.5049 10.877C29.6143 11.0319 29.7487 11.1572 29.9082 11.2529C30.0723 11.3486 30.2614 11.3965 30.4756 11.3965C30.6898 11.3965 30.8812 11.3555 31.0498 11.2734C31.223 11.1868 31.3688 11.0729 31.4873 10.9316C31.6058 10.7858 31.6969 10.6195 31.7607 10.4326C31.8245 10.2458 31.8564 10.0521 31.8564 9.85156ZM42.3018 10.8633C42.3018 11.4876 42.1924 12.0345 41.9736 12.5039C41.7594 12.9688 41.4632 13.3561 41.085 13.666C40.7113 13.9759 40.2715 14.2083 39.7656 14.3633C39.2643 14.5182 38.7243 14.5957 38.1455 14.5957C37.9222 14.5957 37.6761 14.5661 37.4072 14.5068C37.1429 14.4476 36.874 14.3747 36.6006 14.2881C36.3271 14.1969 36.0628 14.1012 35.8076 14.001C35.557 13.8962 35.3337 13.7982 35.1377 13.707L35.4385 10.8906C35.8258 11.123 36.2542 11.3008 36.7236 11.4238C37.1976 11.5423 37.6624 11.6016 38.1182 11.6016C38.2048 11.6016 38.3096 11.5993 38.4326 11.5947C38.5557 11.5856 38.6719 11.5651 38.7812 11.5332C38.8952 11.4967 38.9909 11.4443 39.0684 11.376C39.1458 11.3076 39.1846 11.2096 39.1846 11.082C39.1846 10.9954 39.1572 10.9225 39.1025 10.8633C39.0479 10.7995 38.9772 10.7493 38.8906 10.7129C38.804 10.6719 38.7061 10.6423 38.5967 10.624C38.4873 10.6012 38.3802 10.5853 38.2754 10.5762C38.1706 10.5671 38.0726 10.5625 37.9814 10.5625C37.8903 10.5625 37.8174 10.5625 37.7627 10.5625C37.3708 10.5625 37.013 10.4941 36.6895 10.3574C36.3704 10.2207 36.0947 10.0316 35.8623 9.79004C35.6344 9.54395 35.4567 9.25456 35.3291 8.92188C35.2015 8.58464 35.1377 8.22005 35.1377 7.82812C35.1377 7.29036 35.2448 6.80957 35.459 6.38574C35.6777 5.95736 35.9671 5.59505 36.3271 5.29883C36.6917 4.99805 37.1087 4.7679 37.5781 4.6084C38.0475 4.44889 38.5329 4.36914 39.0342 4.36914C39.2575 4.36914 39.4876 4.37826 39.7246 4.39648C39.9616 4.41016 40.1963 4.4375 40.4287 4.47852C40.6657 4.51953 40.8958 4.57194 41.1191 4.63574C41.3424 4.69954 41.5544 4.7793 41.7549 4.875L41.4951 7.65039C41.1852 7.54557 40.8594 7.45898 40.5176 7.39062C40.1803 7.31771 39.8499 7.28125 39.5264 7.28125C39.4671 7.28125 39.3896 7.28353 39.2939 7.28809C39.2028 7.28809 39.1048 7.29492 39 7.30859C38.8997 7.31771 38.7972 7.33366 38.6924 7.35645C38.5876 7.37923 38.4941 7.41113 38.4121 7.45215C38.3301 7.48861 38.264 7.53874 38.2139 7.60254C38.1637 7.66634 38.141 7.74154 38.1455 7.82812C38.1501 7.92839 38.1865 8.01042 38.2549 8.07422C38.3278 8.13346 38.4189 8.18132 38.5283 8.21777C38.6423 8.24967 38.7653 8.27246 38.8975 8.28613C39.0342 8.2998 39.1686 8.30892 39.3008 8.31348C39.4329 8.31348 39.556 8.31348 39.6699 8.31348C39.7839 8.30892 39.8773 8.3112 39.9502 8.32031C40.3148 8.3431 40.6429 8.42057 40.9346 8.55273C41.2262 8.6849 41.4723 8.86035 41.6729 9.0791C41.8779 9.29785 42.0329 9.5599 42.1377 9.86523C42.2471 10.166 42.3018 10.4987 42.3018 10.8633Z" fill="#E7B628"/>
<g clip-path="url(#clip0_6_160)">
<path d="M51.7619 9.56821C52.0926 9.77512 52.3677 9.9479 52.6536 10.125C52.9352 9.87964 53.1847 9.66207 53.445 9.43382C53.7479 9.645 54.0166 9.83058 54.3089 10.0354C54.5798 9.76446 54.8144 9.52768 55.0576 9.28664C55.3754 9.49355 55.6762 9.68766 55.9599 9.87111C56.2671 9.60874 56.5145 9.39543 56.7598 9.18638C57.0798 9.40183 57.3464 9.58314 57.6109 9.76232C57.9032 9.48715 58.1421 9.26104 58.366 9.04987C58.6881 9.23545 58.9569 9.39116 59.2363 9.55328C60.2666 6.96369 59.3793 5.52811 56.7961 5.35106C55.5717 5.26787 54.3217 5.17401 53.1442 4.85405C50.337 4.09466 47.869 4.50849 45.7423 6.56267C45.7082 6.59466 45.6741 6.62879 45.6399 6.66079C45.2709 7.04048 45.0725 7.54816 45.0171 8.1177L45 8.11343C45 8.11343 45 9.86898 45 12.1471C45 14.4274 47.8136 14.4999 50.8554 14.4999L50.8532 14.4893C51.0985 14.5042 51.3396 14.5021 51.5742 14.485C53.4364 14.3464 55.2773 13.8685 57.1182 13.4995C58.6967 13.1838 59.102 12.3434 58.4684 10.7841C58.4364 10.703 58.3063 10.6604 58.2189 10.5985C57.9522 10.8331 57.7069 11.0507 57.4637 11.2662C57.1352 11.0656 56.8537 10.895 56.5764 10.7244C56.2905 10.9718 56.041 11.1872 55.7871 11.4069C55.4778 11.1958 55.209 11.0123 54.9189 10.8139C54.6438 11.087 54.407 11.3216 54.1596 11.5691C53.8673 11.3622 53.5943 11.1702 53.3063 10.9654C53.0119 11.2064 52.7346 11.4304 52.3208 11.7674C51.9283 11.1723 51.5572 10.6561 51.2628 10.1015C51.2265 10.0332 51.587 9.75166 51.7619 9.56821ZM57.0243 6.60106C57.0734 6.15951 57.8178 6.13178 58.2061 6.43895C58.5943 6.74611 57.9373 6.71412 57.6813 6.8805C57.4723 7.01702 56.9753 7.04261 57.0243 6.60106ZM50.8746 7.08101C50.0128 6.96582 49.8059 6.52854 50.5034 6.29176C51.2009 6.05499 51.7214 5.99739 51.8942 6.47734C52.0712 6.95729 51.6468 7.1834 50.8746 7.08101Z" fill="#E7B628"/>
</g>
<defs>
<clipPath id="clip0_6_160">
<rect width="14.6566" height="10" fill="white" transform="translate(45 4.5)"/>
</clipPath>
</defs>
</svg>
