<svg width="24" height="23" viewBox="0 0 24 23" fill="none" xmlns="http://www.w3.org/2000/svg">
<rect width="24" height="23" rx="11.5" fill="#E7B628"/>
<rect x="4" y="3.71945" width="15.5612" height="15.5612" fill="#E7B628"/>
<path d="M16.1252 16.4529C16.1252 16.8866 16.1252 17.2889 16.1252 17.6912C16.1252 17.9995 15.9311 18.2033 15.6215 18.2033C14.9867 18.2085 14.3467 18.2085 13.7119 18.2033C13.4076 18.2033 13.2135 18.0047 13.2135 17.7017C13.2135 17.1165 13.2135 16.5365 13.2135 15.9513C13.2135 15.9043 13.2135 15.8573 13.2135 15.7998C12.7255 15.7998 12.2481 15.7998 11.7497 15.7998C11.7497 15.8468 11.7497 15.8939 11.7497 15.9357C11.7497 16.5209 11.7497 17.1113 11.7497 17.6965C11.7497 17.9943 11.5556 18.198 11.2513 18.198C10.6165 18.2033 9.97643 18.2033 9.34162 18.198C9.03208 18.198 8.83797 17.9995 8.83797 17.686C8.83797 17.0172 8.83797 16.3484 8.83797 15.6796C8.83797 15.6013 8.81173 15.5542 8.74878 15.5124C8.54417 15.3923 8.33431 15.2721 8.1402 15.131C7.67327 14.7966 7.39521 14.3264 7.19585 13.7987C6.94402 13.1351 6.82335 12.4454 6.74466 11.7453C6.62399 10.6481 6.61874 9.55083 6.59251 8.4536C6.59251 8.41703 6.58726 8.37523 6.58726 8.3491C6.30396 8.3073 6.0259 8.2864 5.75833 8.21848C5.20746 8.08786 4.78775 7.77959 4.5674 7.24142C4.33656 6.67713 4.53068 6.05537 5.05532 5.62693C5.67439 5.13056 6.39315 4.85887 7.16437 4.70212C8.1402 4.49835 9.2262 5.08354 9.55147 6.0188C9.64066 6.27482 9.66165 6.56219 9.67214 6.83911C9.69837 7.50267 9.68788 8.17146 9.70362 8.83502C9.71936 9.43066 9.76133 10.0211 9.90298 10.6063C10.0079 11.0347 10.1653 11.1444 10.6742 11.0922C11.031 11.0556 11.3877 10.9929 11.7497 10.9459C12.3583 10.8675 12.9669 10.8727 13.5755 10.9563C14.1998 11.0399 14.8031 11.1967 15.396 11.4004C16.0308 11.6199 16.5134 12.0222 16.8754 12.5708C17.1745 13.0254 17.4473 13.4956 17.7201 13.9606C18.0874 14.572 18.4494 15.1885 18.9583 15.7005C19.2048 15.9461 19.4776 16.176 19.7557 16.3955C19.9393 16.5418 20.0285 16.7037 19.9918 16.9336C19.9603 17.1374 19.8134 17.2419 19.635 17.3098C19.1052 17.5136 18.5648 17.524 18.0139 17.4143C17.3319 17.2785 16.7443 16.9545 16.2039 16.5313C16.1882 16.5052 16.1672 16.4895 16.1252 16.4529Z" fill="white"/>
</svg>
